<?xml version="1.0" standalone="no"?>
<!DOCTYPE svg PUBLIC "-//W3C//DTD SVG 20010904//EN"
 "http://www.w3.org/TR/2001/REC-SVG-20010904/DTD/svg10.dtd">
<svg version="1.0" xmlns="http://www.w3.org/2000/svg"
 width="300.000000pt" height="300.000000pt" viewBox="0 0 300.000000 300.000000"
 preserveAspectRatio="xMidYMid meet">
<metadata>
Created by potrace 1.11, written by Peter Selinger 2001-2013
</metadata>
<g transform="translate(0.000000,300.000000) scale(0.100000,-0.100000)"
fill="#000000" stroke="none">
<path d="M17 2952 c-39 -43 -13 -72 70 -77 199 -14 278 -34 348 -93 68 -56
109 -150 121 -272 9 -94 9 -2149 0 -2250 -7 -80 -21 -105 -65 -115 -55 -12
-70 -13 -187 -20 -65 -4 -128 -8 -139 -10 -11 -1 -26 -3 -33 -4 -17 -1 -35
-50 -23 -65 7 -8 153 -11 523 -11 l513 1 3 28 c6 48 6 48 -193 61 -233 15
-229 14 -252 41 -13 14 -23 39 -24 57 -2 49 -4 2077 -3 2077 1 0 33 -42 72
-92 39 -51 119 -157 179 -235 59 -78 135 -177 168 -220 54 -70 327 -420 525
-673 41 -52 77 -97 81 -100 3 -3 59 -72 125 -155 65 -82 129 -161 140 -175 12
-14 101 -120 198 -237 189 -227 333 -383 354 -383 7 0 16 10 21 23 5 12 9 637
9 1388 0 1019 3 1372 12 1388 16 30 42 38 151 45 302 20 289 18 289 62 l0 34
-522 -3 -523 -2 -3 -27 c-5 -44 8 -47 308 -64 57 -3 112 -10 122 -15 48 -26
48 -9 48 -930 0 -474 -2 -861 -4 -858 -2 2 -66 85 -141 184 -76 99 -159 207
-185 240 -25 33 -138 179 -250 325 -112 146 -225 292 -250 325 -99 128 -163
212 -395 513 l-239 312 -111 -5 c-159 -7 -507 -7 -675 0 -135 6 -147 5 -163
-13z"/>
</g>
</svg>
